<?xml version="1.0" encoding="utf-8"?>
<!-- Generator: Adobe Illustrator 21.0.2, SVG Export Plug-In . SVG Version: 6.00 Build 0)  -->
<svg version="1.1" id="Layer_1" xmlns="http://www.w3.org/2000/svg" xmlns:xlink="http://www.w3.org/1999/xlink" x="0px" y="0px"
	 viewBox="0 0 606 239" style="enable-background:new 0 0 606 239;" xml:space="preserve">
<style type="text/css">
	.st0{fill:#FFFFFF;}
</style>
<g>
	<path class="st0" d="M16.5,113h18.7V50.7H16.5V40h102v24.2h-15.6V50.7H51.5v27.2h42v8.4h-42V113h28.7v10.8H16.5V113z M20.6,55.4
		h11.6V58H20.6V55.4z M85.2,128.4v-11.7H88V131H20.6v-2.6H85.2z M56.5,55.4h43.6V58H59.3v15.9h-2.8V55.4z M56.5,91h42.1v-9.8h2.8
		v12.3H59.3v15.3h-2.8V91z M107,68.9h16.4V43.3h2.8v28.1H107V68.9z"/>
	<path class="st0" d="M132.5,113h15l45.6-73h15l44.8,73h18v10.8h-53.4V113h16.8l-10.1-17.2h-48.6l-9.8,17.2h16v10.8h-49.4V113z
		 M186.9,128.4v-11.8h2.8V131h-54.1v-2.6H186.9z M178.4,100.5h45.3l1.2,2.6h-44.4l-3.3,5.9h-3.5L178.4,100.5z M219.3,87.4L199.7,54
		l-19.1,33.4H219.3z M200.9,61.6l1.7,3l-11.2,18.8H188L200.9,61.6z M219.1,43.4l40.1,65.5h-3.2L216,43.4H219.1z M275.9,128.4v-11.8
		h2.9V131h-58.2v-2.6H275.9z"/>
	<path class="st0" d="M289.8,113h18.1V50.7h-19.1V40h56.8c5.3,0,10.1,0.1,14.4,0.3c4.3,0.2,8.1,0.6,11.6,1.2
		c4.1,0.8,7.5,1.8,10.4,3.2c2.8,1.3,5.2,3,7,4.9c1.8,1.9,3.1,4.1,3.9,6.5c0.8,2.4,1.2,5,1.2,7.8c0,5.2-1.7,9.6-5,13.5
		c-3.3,3.8-8.3,6.7-15,8.7c-0.8,0.3-1.7,0.5-2.6,0.7c-0.9,0.2-1.8,0.4-2.7,0.6c2.4,1.3,4.9,2.8,7.3,4.8c2.4,1.9,4.7,4,6.8,6.3
		s3.9,4.7,5.4,7.2c1.5,2.5,2.6,4.9,3.3,7.4h14v10.8h-49V113h16.5c-0.8-2.4-2-4.9-3.7-7.5c-1.7-2.6-3.7-5-6-7.2c-2.4-2.2-5-4.2-8-5.9
		c-3-1.7-6.2-2.8-9.5-3.4h-22.3V113h16.9v10.8h-50.6V113z M292.5,55.4h11V58h-11V55.4z M345.5,128.4v-11.7h2.8V131h-54.1v-2.6H345.5
		z M348.5,78.3c5.5,0,10.1-0.3,13.8-0.9c3.7-0.6,6.6-1.5,8.8-2.7c2.2-1.2,3.7-2.7,4.6-4.4c0.9-1.7,1.4-3.7,1.4-6
		c0-2.8-1-5.3-3.1-7.5c-2-2.2-5.3-3.9-9.7-4.9c-2.1-0.5-4.4-0.8-7.1-0.9c-2.6-0.1-5.5-0.2-8.7-0.2h-25v27.6H348.5z M328.5,55.4h20
		c3.8,0,7,0.1,9.5,0.2c2.5,0.2,4.7,0.4,6.4,0.8c1.8,0.4,3.2,0.9,4.4,1.6c1.2,0.7,2.2,1.5,3.2,2.5c-0.9-0.4-2-0.8-3.3-1.1
		c-1.3-0.3-2.8-0.6-4.7-0.8c-1.8-0.2-4-0.4-6.6-0.5c-2.5-0.1-5.5-0.2-9-0.2h-17.3v16.3h-2.8V55.4z M328.5,93.8h8.4
		c4.4,0,8.4,0.3,11.8,1c3.4,0.7,6,1.9,7.5,3.6c-1.3-0.4-2.6-0.7-3.8-0.9s-2.7-0.5-4.3-0.6c-1.6-0.2-3.4-0.3-5.5-0.4
		c-2.1-0.1-4.6-0.1-7.6-0.1h-3.7v12.6h-2.8V93.8z M410.5,128.4v-11.7h2.8V131h-53.7v-2.6H410.5z M379.2,88.5
		c3.1-0.9,5.9-2.2,8.3-3.8c2.4-1.6,4.5-3.5,6.2-5.6c1.7-2.2,3-4.5,3.9-7.1c0.9-2.6,1.4-5.3,1.4-8.1c0-2-0.2-3.9-0.6-5.7
		c-0.4-1.8-1.1-3.6-2.1-5.3c-1-1.7-2.4-3.3-4.1-4.9c-1.7-1.6-3.8-3.1-6.4-4.6c2.9,1,5.3,2.3,7.4,3.7c2.1,1.5,3.7,3.1,5.1,4.9
		c1.3,1.8,2.3,3.7,2.9,5.7c0.6,2,0.9,4,0.9,6.2c0,2.6-0.4,5.1-1.1,7.6c-0.7,2.5-1.8,4.8-3.3,7c-1.5,2.2-3.3,4.2-5.6,6.1
		c-2.3,1.8-4.9,3.4-8,4.7c1.4,1.1,2.8,2.4,4.1,4c1.4,1.6,2.6,3.3,3.8,5.1c1.2,1.8,2.3,3.6,3.3,5.4s1.7,3.5,2.3,5h-3.3
		c-0.7-1.7-1.6-3.6-2.6-5.5c-1-2-2.2-3.8-3.5-5.7c-1.3-1.8-2.7-3.6-4.3-5.1C382.5,90.9,380.9,89.6,379.2,88.5z"/>
	<path class="st0" d="M426.8,113h18.7V50.7h-18.7V40h45.1l32.5,55.8L534.6,40h45.1v10.8h-18.6V113h18.6v10.8h-50.3V113h15.9V50.1
		l-37.2,68.8h-8.4l-38.5-66.7V113h15.8v10.8h-50.3V113z M431,55.4h11.6V58H431V55.4z M482.1,128.4v-11.7h2.8V131H431v-2.6H482.1z
		 M466.1,67.8l2.8,4.8v36.4h-2.8V67.8z M479.7,43.4h3.1L507,84.6l-1.6,2.8L479.7,43.4z M511.4,123.7L542,66.9v5.6l-28.8,53.7h-7.1
		l-1.5-2.6H511.4z M584.7,128.4v-11.7h2.8V131h-53.9v-2.6H584.7z M566,55.4h18.7V43.3h2.8V58h-18.7v50.9H566V55.4z"/>
	<path class="st0" d="M10.1,177.2c0-2.2,0.3-4.3,0.9-6.5c0.6-2.1,1.5-4.2,2.6-6.1c1.2-1.9,2.7-3.7,4.4-5.3c1.8-1.6,3.8-3.1,6.2-4.3
		s5-2.1,8-2.8c3-0.7,6.2-1,9.8-1c1.9,0,3.8,0.1,5.7,0.4s3.7,0.7,5.4,1.2c1.7,0.5,3.3,1.1,4.9,1.9c1.5,0.7,2.9,1.6,4.1,2.4v-4.6h9.2
		v14.2H62c-0.9-1.3-2-2.6-3.4-3.7c-1.4-1.1-3-2.1-4.8-2.9c-1.8-0.8-3.7-1.5-5.9-1.9c-2.1-0.5-4.3-0.7-6.6-0.7
		c-3.6,0-6.7,0.6-9.3,1.7c-2.6,1.1-4.8,2.6-6.6,4.4c-1.7,1.8-3,3.9-3.9,6.3c-0.9,2.4-1.3,4.8-1.3,7.3c0,2.8,0.5,5.5,1.6,7.8
		c1.1,2.4,2.6,4.4,4.5,6.1c1.9,1.7,4.3,3,6.9,4c2.7,1,5.6,1.4,8.9,1.4c2.9,0,5.6-0.3,8-0.8c2.4-0.6,4.5-1.3,6.4-2.4s3.5-2.3,4.9-3.8
		c1.4-1.5,2.5-3.2,3.4-5l6.3,4.1c-2.5,4.7-6.2,8.2-11,10.7c-4.8,2.4-10.9,3.6-18.2,3.6c-4.6,0-8.9-0.7-12.7-2s-7.2-3.1-10-5.4
		c-2.8-2.3-5-5-6.6-8.2C10.9,184.2,10.1,180.8,10.1,177.2z M20.1,199.8c1.3,0.9,2.8,1.7,4.5,2.4c1.7,0.7,3.5,1.3,5.5,1.9
		c1.9,0.5,3.9,0.9,5.9,1.2c2,0.3,4,0.4,6,0.4c3.5,0,6.8-0.3,9.9-0.9s6-1.4,8.6-2.5c2.6-1.1,4.9-2.5,6.9-4.1c2-1.6,3.6-3.5,4.8-5.6
		l1.4,0.8c-1.2,2.2-2.9,4.1-5,5.9c-2.1,1.7-4.5,3.2-7.2,4.4c-2.7,1.2-5.7,2.1-9.1,2.7c-3.3,0.6-6.9,0.9-10.6,0.9
		c-2.1,0-4.3-0.2-6.4-0.5c-2.1-0.3-4.1-0.8-6-1.4c-1.9-0.6-3.7-1.4-5.3-2.3C22.6,202.1,21.2,201.1,20.1,199.8z M23.2,177.1
		c0-2.4,0.4-4.7,1.3-6.7c0.9-2.1,2.1-3.8,3.8-5.3c1.6-1.5,3.5-2.7,5.8-3.5c2.2-0.8,4.7-1.3,7.4-1.3c3.6,0,6.7,0.5,9.4,1.6
		c2.7,1.1,4.9,2.6,6.5,4.6c-2.4-1.6-4.9-2.8-7.5-3.5s-5.5-1.1-8.5-1.1c-2.6,0-4.9,0.4-6.9,1.2c-2,0.8-3.8,1.9-5.2,3.3
		c-1.4,1.4-2.5,3-3.3,4.8c-0.7,1.8-1.1,3.8-1.1,5.8c0,2,0.3,3.8,0.8,5.5c0.6,1.7,1.4,3.3,2.6,4.7c1.2,1.4,2.8,2.7,4.7,3.9
		c1.9,1.2,4.3,2.2,7,3c-2.5-0.3-4.9-1-6.9-1.9s-3.8-2.1-5.3-3.6c-1.5-1.4-2.6-3.1-3.4-5C23.6,181.5,23.2,179.4,23.2,177.1z
		 M64.5,169.6h9.7v-15h1.6v16.5H64.5V169.6z"/>
	<path class="st0" d="M87.4,195.4H98v-36.5H86.7v-6.3h33.3c3.1,0,5.9,0.1,8.4,0.2c2.5,0.1,4.8,0.3,6.8,0.7c2.4,0.4,4.4,1.1,6.1,1.9
		c1.7,0.8,3,1.7,4.1,2.9c1.1,1.1,1.8,2.4,2.3,3.8c0.5,1.4,0.7,2.9,0.7,4.6c0,3-1,5.7-2.9,7.9c-2,2.2-4.9,3.9-8.8,5.1
		c-0.5,0.2-1,0.3-1.5,0.4c-0.5,0.1-1.1,0.2-1.6,0.4c1.4,0.7,2.9,1.7,4.3,2.8s2.8,2.4,4,3.7c1.2,1.3,2.3,2.7,3.2,4.2
		c0.9,1.5,1.6,2.9,1.9,4.3h8.2v6.3h-28.7v-6.3h9.7c-0.5-1.4-1.2-2.9-2.2-4.4c-1-1.5-2.2-2.9-3.5-4.2c-1.4-1.3-2.9-2.5-4.7-3.4
		s-3.6-1.6-5.6-2h-13.1v14h9.9v6.3H87.4V195.4z M88.9,161.7h6.5v1.5h-6.5V161.7z M120.1,204.5v-6.9h1.6v8.4H90v-1.5H120.1z
		 M121.8,175.1c3.3,0,6-0.2,8.1-0.5c2.1-0.4,3.9-0.9,5.1-1.6c1.3-0.7,2.2-1.6,2.7-2.6c0.5-1,0.8-2.2,0.8-3.5c0-1.6-0.6-3.1-1.8-4.4
		c-1.2-1.3-3.1-2.3-5.7-2.9c-1.2-0.3-2.6-0.5-4.1-0.6c-1.5-0.1-3.3-0.1-5.1-0.1h-14.7v16.2H121.8z M110,161.7h11.8
		c2.2,0,4.1,0,5.6,0.1c1.5,0.1,2.8,0.3,3.8,0.5s1.9,0.5,2.6,0.9c0.7,0.4,1.3,0.9,1.9,1.4c-0.5-0.2-1.2-0.4-1.9-0.6
		c-0.7-0.2-1.7-0.3-2.7-0.5c-1.1-0.1-2.4-0.2-3.8-0.3c-1.5-0.1-3.2-0.1-5.3-0.1h-10.1v9.5H110V161.7z M110,184.2h4.9
		c2.6,0,4.9,0.2,6.9,0.6c2,0.4,3.5,1.1,4.4,2.1c-0.8-0.2-1.5-0.4-2.3-0.6s-1.6-0.3-2.5-0.4s-2-0.2-3.3-0.2c-1.2-0.1-2.7-0.1-4.5-0.1
		h-2.2v7.4H110V184.2z M158.2,204.5v-6.9h1.6v8.4h-31.5v-1.5H158.2z M139.8,181.1c1.8-0.5,3.4-1.3,4.9-2.2c1.4-0.9,2.7-2.1,3.6-3.3
		c1-1.3,1.7-2.7,2.3-4.2c0.5-1.5,0.8-3.1,0.8-4.8c0-1.2-0.1-2.3-0.4-3.4s-0.7-2.1-1.3-3.1s-1.4-1.9-2.4-2.9c-1-0.9-2.3-1.8-3.7-2.7
		c1.7,0.6,3.1,1.3,4.3,2.2c1.2,0.9,2.2,1.8,3,2.9s1.3,2.2,1.7,3.3c0.4,1.2,0.5,2.4,0.5,3.6c0,1.5-0.2,3-0.6,4.5
		c-0.4,1.4-1.1,2.8-1.9,4.1c-0.9,1.3-1.9,2.5-3.3,3.6c-1.3,1.1-2.9,2-4.7,2.8c0.8,0.6,1.6,1.4,2.4,2.3s1.6,1.9,2.3,3
		c0.7,1.1,1.3,2.1,1.9,3.2c0.6,1.1,1,2,1.3,2.9h-1.9c-0.4-1-0.9-2.1-1.5-3.3c-0.6-1.1-1.3-2.3-2.1-3.3c-0.8-1.1-1.6-2.1-2.5-3
		C141.7,182.5,140.8,181.7,139.8,181.1z"/>
	<path class="st0" d="M163.7,195.4h8.8l26.8-42.8h8.8l26.3,42.8h10.6v6.3h-31.3v-6.3h9.8l-5.9-10.1H189l-5.7,10.1h9.4v6.3h-29V195.4
		z M195.6,204.5v-6.9h1.6v8.4h-31.7v-1.5H195.6z M190.6,188.1h26.6l0.7,1.5h-26.1l-1.9,3.4h-2.1L190.6,188.1z M214.6,180.4
		l-11.5-19.6l-11.2,19.6H214.6z M203.8,165.3l1,1.7l-6.5,11h-2L203.8,165.3z M214.5,154.6l23.5,38.4h-1.9l-23.5-38.4H214.5z
		 M247.8,204.5v-6.9h1.7v8.4h-34.2v-1.5H247.8z"/>
	<path class="st0" d="M263.2,158.9h-9.6v-6.3h30.9v6.3h-11.3l14.2,34.2l16.7-34.2h-9.9v-6.3h29.4v6.3h-10.2l15.5,34l14-34h-10.4
		v-6.3h27.6v6.3h-8.7l-18.1,42.8h-9.5L308,168.2l-16.9,33.5h-9.5L263.2,158.9z M256.2,161.7h5.6l0.7,1.5h-6.2V161.7z M277.4,161.7
		h10v-7.1h1.6v8.6h-9.2l9,21.8l-1,2L277.4,161.7z M293,204.5l15.3-30.2l0.9,1.9L294.2,206h-8.7l-0.9-1.5H293z M296.4,161.7h3.8
		l-0.7,1.5h-3.1V161.7z M326.5,161.7l0.4-7.1h1.3v8.6h-7.6l9.4,21l-1,2l-10.9-24.5H326.5z M335.1,204.5l18.3-42.8h9.6v-7.1h1.6v8.6
		h-10.1L336.4,206h-8.7l-0.9-1.5H335.1z M335.2,161.7h4.6l-0.6,1.5h-3.9V161.7z"/>
	<path class="st0" d="M373,195.4h10.6v-36.5h-11.3v-6.3h31.9v6.3h-11.4v36.5h28.3V184h9.2v17.8H373V195.4z M374.7,162.1h7.1v1.5
		h-7.1V162.1z M433.1,204.5v-18.3h1.6V206h-59.3v-1.5H433.1z M395.7,162.1h11.3v-7.5h1.6v9h-11.3V193h-1.6V162.1z"/>
	<path class="st0" d="M447.5,195.4h11v-36.5h-11v-6.3H508V168h-9.2v-9.1h-30.8v15.5h20.4v4.9h-20.4v16h30.8v-9.1h9.2v15.4h-60.5
		V195.4z M450,161.7h6.8v1.5H450V161.7z M510.9,204.5v-15.9h1.6V206H450v-1.5H510.9z M471,161.7h26.2v1.5h-24.5v8.9H471V161.7z
		 M471,182.1h20.4v-5.7h1.6v7.2h-20.4v9.4H471V182.1z M501.3,170.7h9.6v-16.2h1.6v17.7h-11.3V170.7z"/>
	<path class="st0" d="M528.7,195.4h10.6v-36.5h-11.2v-6.3h33.3c3.1,0,5.9,0.1,8.4,0.2c2.5,0.1,4.8,0.3,6.8,0.7
		c2.4,0.4,4.4,1.1,6.1,1.9c1.7,0.8,3,1.7,4.1,2.9c1.1,1.1,1.8,2.4,2.3,3.8c0.5,1.4,0.7,2.9,0.7,4.6c0,3-1,5.7-2.9,7.9
		c-2,2.2-4.9,3.9-8.8,5.1c-0.5,0.2-1,0.3-1.5,0.4c-0.5,0.1-1.1,0.2-1.6,0.4c1.4,0.7,2.9,1.7,4.3,2.8s2.8,2.4,4,3.7
		c1.2,1.3,2.3,2.7,3.2,4.2c0.9,1.5,1.6,2.9,1.9,4.3h8.2v6.3h-28.7v-6.3h9.7c-0.5-1.4-1.2-2.9-2.2-4.4c-1-1.5-2.2-2.9-3.5-4.2
		c-1.4-1.3-2.9-2.5-4.7-3.4s-3.6-1.6-5.6-2h-13.1v14h9.9v6.3h-29.7V195.4z M530.3,161.7h6.5v1.5h-6.5V161.7z M561.4,204.5v-6.9h1.6
		v8.4h-31.7v-1.5H561.4z M563.2,175.1c3.3,0,6-0.2,8.1-0.5c2.1-0.4,3.9-0.9,5.1-1.6c1.3-0.7,2.2-1.6,2.7-2.6c0.5-1,0.8-2.2,0.8-3.5
		c0-1.6-0.6-3.1-1.8-4.4c-1.2-1.3-3.1-2.3-5.7-2.9c-1.2-0.3-2.6-0.5-4.1-0.6c-1.5-0.1-3.3-0.1-5.1-0.1h-14.7v16.2H563.2z
		 M551.4,161.7h11.8c2.2,0,4.1,0,5.6,0.1c1.5,0.1,2.8,0.3,3.8,0.5s1.9,0.5,2.6,0.9c0.7,0.4,1.3,0.9,1.9,1.4
		c-0.5-0.2-1.2-0.4-1.9-0.6c-0.7-0.2-1.7-0.3-2.7-0.5c-1.1-0.1-2.4-0.2-3.8-0.3c-1.5-0.1-3.2-0.1-5.3-0.1h-10.1v9.5h-1.6V161.7z
		 M551.4,184.2h4.9c2.6,0,4.9,0.2,6.9,0.6c2,0.4,3.5,1.1,4.4,2.1c-0.8-0.2-1.5-0.4-2.3-0.6s-1.6-0.3-2.5-0.4s-2-0.2-3.3-0.2
		c-1.2-0.1-2.7-0.1-4.5-0.1h-2.2v7.4h-1.6V184.2z M599.6,204.5v-6.9h1.6v8.4h-31.5v-1.5H599.6z M581.2,181.1
		c1.8-0.5,3.4-1.3,4.9-2.2c1.4-0.9,2.7-2.1,3.6-3.3c1-1.3,1.7-2.7,2.3-4.2c0.5-1.5,0.8-3.1,0.8-4.8c0-1.2-0.1-2.3-0.4-3.4
		s-0.7-2.1-1.3-3.1s-1.4-1.9-2.4-2.9c-1-0.9-2.3-1.8-3.7-2.7c1.7,0.6,3.1,1.3,4.3,2.2c1.2,0.9,2.2,1.8,3,2.9s1.3,2.2,1.7,3.3
		c0.4,1.2,0.5,2.4,0.5,3.6c0,1.5-0.2,3-0.6,4.5c-0.4,1.4-1.1,2.8-1.9,4.1c-0.9,1.3-1.9,2.5-3.3,3.6c-1.3,1.1-2.9,2-4.7,2.8
		c0.8,0.6,1.6,1.4,2.4,2.3s1.6,1.9,2.3,3c0.7,1.1,1.3,2.1,1.9,3.2c0.6,1.1,1,2,1.3,2.9h-1.9c-0.4-1-0.9-2.1-1.5-3.3
		c-0.6-1.1-1.3-2.3-2.1-3.3c-0.8-1.1-1.6-2.1-2.5-3C583.1,182.5,582.2,181.7,581.2,181.1z"/>
</g>
</svg>
